<?xml version="1.0" encoding="utf-8"?>
<!-- Generator: Adobe Illustrator 21.1.0, SVG Export Plug-In . SVG Version: 6.00 Build 0)  -->
<svg version="1.1" id="Layer_1" xmlns="http://www.w3.org/2000/svg" xmlns:xlink="http://www.w3.org/1999/xlink" x="0px" y="0px"
	 viewBox="0 0 936.7 353.2" style="enable-background:new 0 0 936.7 353.2;" xml:space="preserve">
<style type="text/css">
	.st0{fill:#0053A5;}
	.st1{fill:#D80081;}
</style>
<g>
	<g>
		<g>
			<g>
				<path class="st0" d="M28.1,339.1c0,3.8-1.4,7.2-4.1,9.9c-2.7,2.7-6,4.1-9.9,4.1H0V250.4C0,231.2,5.6,218,16.9,211
					s23.5-10.5,36.7-10.5c6.9,0,13.8,1.3,20.8,3.9c7,2.6,12.6,6.4,16.7,11.3c8.2,10.7,12.4,24.5,12.4,41.3
					c0,17.3-4.1,31.4-12.4,42.1c-8.3,10.5-18.8,15.7-31.8,15.7c-6.9,0-12.9-1.2-18.2-3.7c-5.5-2.7-9.9-7-13.2-12.8v40.8H28.1z
					 M75.1,258.3c0-10.7-2.1-19-6.2-24.7c-4.1-5.8-10-8.7-17.7-8.7c-7.4,0-13.2,2.9-17.3,8.7c-3.9,5.2-5.8,13.5-5.8,24.7
					c0,10.5,2.1,18.3,6.2,23.5c4.1,5.8,10,8.7,17.7,8.7c7.1,0,12.8-2.9,16.9-8.7C73,276,75.1,268.2,75.1,258.3z"/>
				<path class="st0" d="M110.1,312.7v-53.2c0-10.7,1.6-19.7,4.7-27c3.2-7.3,7.5-13.1,13-17.5c5.2-4.1,11.3-7.1,18.4-9.1
					c7-1.9,14.2-2.9,21.7-2.9c0.6,0,1.2,0,2.1,0c0.8,0,1.5,0,2.1,0v29.3h-9.5c-8,0-13.9,1.9-17.7,5.8c-3.9,3.9-5.8,9.9-5.8,18.2
					v56.5h-29V312.7z"/>
				<path class="st0" d="M191.4,302.8c-5.8-5-9.9-11.6-12.4-20s-3.7-17.1-3.7-26.2c0-7.4,1-14.9,3.1-22.3c2.1-7.4,5.3-13.6,9.7-18.6
					c7.2-8.2,16.4-13.1,27.6-14.6c11.3-1.5,21.5-0.6,30.5,2.7c10.4,4.1,18.2,11.3,23.1,21.5c4.7,9.1,7,19.7,7,31.8
					c0,8.8-1,16.4-2.9,22.7c-1.9,6.3-4.4,11.7-7.4,16.1c-6.6,9.1-15,14.7-25.2,16.9c-9.1,2.5-18.2,2.7-27.4,0.6
					C204.3,311.3,196.9,307.8,191.4,302.8z M211.2,230.2c-5.8,6.3-8.4,15.8-7.8,28.3c0.5,12.5,2.9,21.2,7,26.2
					c1.6,2.2,4.5,4.1,8.7,5.6c4.1,1.5,8.3,1.6,12.6,0.4s8-4.3,11.3-9.3s5.1-12.9,5.4-23.9c0-9.9-1.6-17.3-4.7-22.3
					c-3.2-5-6.8-8.1-10.9-9.5c-4.1-1.4-8.2-1.4-12.4-0.2C216.2,226.7,213.1,228.3,211.2,230.2z"/>
				<path class="st0" d="M378.6,312.7h-28.5v-64.4v-5.8c0-6.6-2-11.4-6-14.4s-8.5-4.5-13.4-4.5c-5,0-9.4,1.5-13.2,4.5
					c-3.9,3-5.8,7.8-5.8,14.4v70.1h-28.9v-64.4c0-18.7,4.9-31.2,14.6-37.5c9.8-6.3,20.6-9.8,32.4-10.3c6.3,0,12.5,0.7,18.6,2.1
					c6,1.4,11.6,4.1,16.5,8.2c4.1-3.6,9-6.1,14.6-7.6s11.5-2.4,17.5-2.7c12.1,0,23.2,3.2,33.4,9.5c10.2,6.3,15.3,19.1,15.3,38.4
					v64.4h-14.4c-4.1,0-7.5-1.3-10.1-3.9s-3.9-6-3.9-10.1v-56.1c0-6.6-2-11.4-6-14.4s-8.5-4.5-13.4-4.5c-5,0-9.4,1.5-13.4,4.5
					s-6,7.8-6,14.4v5.8L378.6,312.7L378.6,312.7z"/>
			</g>
			<g>
				<path class="st1" d="M454.4,276.4h28.1c0.3,5.5,2.3,9.6,6.2,12.4c4.1,2.7,9.6,4.1,16.5,4.1c5,0,9.2-1,12.8-2.9
					c3.3-1.9,5-4.5,5-7.8c0-5-5.8-8.7-17.3-11.1c-5-0.8-8.7-1.6-11.1-2.5c-14.6-3.6-24.3-7.8-29.3-12.8c-5.5-5-8.2-11.5-8.2-19.8
					c0-10.4,4-19.1,12-26c8.2-6.3,19-9.5,32.2-9.5c14.3,0,25.7,3.2,34.2,9.5c8,6.9,12.2,15.8,12.8,26.8h-17.7c-5.2,0-9.2-2.3-12-7
					c-1.1-1.1-2.2-2.2-3.3-3.3c-3.3-2.5-7.8-3.7-13.6-3.7c-5.5,0-9.6,0.8-12.4,2.5c-2.5,1.7-3.7,4.1-3.7,7.4
					c0,4.4,7.2,8.1,21.5,11.1c1.6,0.6,3.1,1,4.3,1.2c1.2,0.3,2.4,0.4,3.5,0.4c14,3.6,23.8,7.7,29.3,12.4c5.2,5,7.8,11.6,7.8,19.8
					c0,12.1-4.4,21.5-13.2,28.1c-8.2,6.1-20.6,9.1-37.1,9.1c-15.7,0-27.4-3.2-35.1-9.5c-8-6.3-12-15.5-12-27.6v-1.3H454.4z"/>
				<path class="st1" d="M571.4,302.8c-5.8-5-9.9-11.6-12.4-20s-3.7-17.1-3.7-26.2c0-7.4,1-14.9,3.1-22.3c2.1-7.4,5.3-13.6,9.7-18.6
					c7.1-8.2,16.4-13.1,27.6-14.6c11.3-1.5,21.5-0.6,30.5,2.7c10.5,4.1,18.2,11.3,23.1,21.5c4.7,9.1,7,19.7,7,31.8
					c0,8.8-1,16.4-2.9,22.7c-1.9,6.3-4.4,11.7-7.4,16.1c-6.6,9.1-15,14.7-25.2,16.9c-9.1,2.5-18.2,2.7-27.4,0.6
					C584.2,311.3,576.9,307.8,571.4,302.8z M591.2,230.2c-5.8,6.3-8.4,15.8-7.8,28.3c0.5,12.5,2.9,21.2,7,26.2
					c1.6,2.2,4.5,4.1,8.7,5.6c4.1,1.5,8.3,1.6,12.6,0.4s8-4.3,11.3-9.3s5.1-12.9,5.4-23.9c0-9.9-1.6-17.3-4.7-22.3
					c-3.2-5-6.8-8.1-10.9-9.5c-4.1-1.4-8.3-1.4-12.4-0.2C596.1,226.7,593.1,228.3,591.2,230.2z"/>
				<path class="st1" d="M740.1,278.9h20.6c-3,11.6-8.8,20.4-17.3,26.4c-8.5,6.3-19.3,9.5-32.2,9.5c-15.7,0-27.9-5.1-36.7-15.3
					c-8.8-9.9-13.2-24.1-13.2-42.5c0-17.6,4.3-31.4,12.8-41.3c8.8-10.2,21-15.3,36.7-15.3c16.5,0,29.3,5,38.4,14.9
					c5,6.1,8.5,13.1,10.7,21H731c-1.4-2.7-2.8-4.8-4.1-6.2c-3.6-3.8-8.7-5.8-15.3-5.8c-6.1,0-11,1.9-14.9,5.8
					c-5,5.5-7.4,14.6-7.4,27.2c0,12.7,2.5,21.6,7.4,26.8c3.6,4.4,8.9,6.6,16.1,6.6c4.7,0,8.7-1,12-2.9c0.8-0.3,1.6-0.8,2.3-1.4
					c0.7-0.7,1.4-1.4,2.3-2.3c0.5-0.8,1.7-1.9,3.3-3.3C734.4,279.6,736.8,278.9,740.1,278.9z"/>
				<path class="st1" d="M768.4,170.8h14.9c3.9,0,7.1,1.4,9.9,4.1c2.7,2.8,4.1,6,4.1,9.9v8.7h-28.9V170.8z M768.4,203h14.9
					c3.9,0,7.1,1.4,9.9,4.1c2.7,2.8,4.1,6.1,4.1,9.9v95.7h-28.9V203z"/>
				<path class="st1" d="M878,308.2c-5.8,3-11.9,4.9-18.4,5.6s-12.2,1-17.1,1c-9.9,0-18.6-2.7-26-8c-7.4-5.4-11.1-14.2-11.1-26.6
					c0-11.6,3.4-19.8,10.1-24.8c6.7-5,15.3-8.3,25.8-9.9c1.4,0,3-0.2,5-0.6c1.9-0.4,4.1-0.8,6.6-1c12.1-1.6,18.1-5.2,18.1-10.7
					c0-4.1-2.1-6.8-6.4-8c-4.3-1.2-8.2-1.9-11.8-1.9c-3.9,0-7.3,0.6-10.3,1.7c-3,1.1-5.2,3.2-6.6,6.2h-27.6c1.1-8.5,5-15.5,11.6-21
					c7.4-6.3,18-9.5,31.8-9.5c15.4,0,27,2.6,34.7,7.8c8,5.5,12,13.2,12,23.1V269c0,11-2,19.6-6,25.8
					C888.3,301,883.5,305.4,878,308.2z M871.4,257.4c-3.9,1.9-9.2,3.7-16.1,5.4l-9.5,2.1c-4.9,1.4-8.5,3.2-10.7,5.4
					c-1.9,3-2.9,6.1-2.9,9.1c0,4.1,1.2,7.4,3.7,9.9c2.5,2.2,6,3.3,10.7,3.3c7.7,0,13.7-2.2,18.1-6.6c4.4-4.4,6.6-10.5,6.6-18.2
					v-10.4H871.4z"/>
				<path class="st1" d="M907.8,170.8h14.9c3.9,0,7.1,1.3,9.9,3.9c2.7,2.6,4.1,5.8,4.1,9.7v128.3h-28.9V170.8z"/>
			</g>
		</g>
	</g>
	<g>
		<g>
			<g>
				<path class="st0" d="M469.8,98.9V77.6l-0.3-3c0-9.6,0.4-19.6-10-19.6L336.2,43.8c-10.4,0-18.8,7.8-18.8,17.3v97.7
					c0,9.6,8.4,17.3,18.8,17.3l70.9-14.6l39.3,30.7v-38.8l13.1-2.7c10.4,0,18.8-7.8,18.8-17.3v-28.9L469.8,98.9z M379,117.5
					l-39.2,26.8V72L379,96.3V117.5z M403.5,113.1c0,4.8-4.4,8.6-9.8,8.6s-9.8-3.9-9.8-8.6v-10.6c0-4.8,4.4-8.6,9.8-8.6
					s9.8,3.9,9.8,8.6V113.1z M447.6,141.2l-39.2-23.7V96.3l39.2-22V141.2z"/>
				<g>
					<path class="st1" d="M532.4,69c5.8,0,10.5-6.1,10.5-13.5c0-7.5-4.7-13.3-10.5-12.9c-5.8,0.4-10.5,6.4-10.5,13.5
						S526.6,69,532.4,69z M532.3,49.9c2.8-0.1,5.1,2.7,5.1,6.2c0,3.6-2.3,6.5-5.1,6.5s-5.1-2.8-5.1-6.2
						C527.3,52.9,529.6,50,532.3,49.9z"/>
					<path class="st1" d="M485.2,72.2c2.1-1.2,2.7-4.7,1.3-7.7c-1.4-3-4.3-4.3-6.4-3s-2.7,4.6-1.2,7.5
						C480.3,72,483.1,73.4,485.2,72.2z"/>
					<path class="st1" d="M562.5,71.3c3.9,2.1,9.2-0.1,11.8-5.1s1.6-10.8-2.3-12.8c-3.9-2-9.2,0.5-11.8,5.4
						C557.5,63.6,558.5,69.2,562.5,71.3z"/>
					<path class="st1" d="M499,55.5c-2.9,1.9-3.6,6.7-1.7,10.8c1.9,4.2,5.8,6.2,8.7,4.4c2.9-1.8,3.6-6.9,1.7-11.1
						C505.8,55.4,501.9,53.6,499,55.5z"/>
					<path class="st1" d="M597.9,60c-2.9-1.6-6.9,0.3-8.8,4.1c-2,3.9-1.2,8.3,1.7,9.9c2.9,1.7,6.9,0,8.8-4
						C601.6,66.1,600.8,61.6,597.9,60z"/>
					<path class="st1" d="M600.4,0L477.1,11.3c-10.4,0-18.8,7.8-18.8,17.3v60.9c0,9.6,8,15.4,18.8,17.3l35.2,6.8l0.8,42.9l39.2-34.1
						l48.1,9.8c10.4,0,18.8-7.8,18.8-17.3V17.3C619.2,7.8,610.8,0,600.4,0z M575.2,47.1c6.6,3.3,8.3,13.3,3.9,21.7
						c-4.4,8.5-13.3,12-19.9,8.4c-6.6-3.6-8.3-12.8-3.9-20.9C559.7,48.1,568.7,43.8,575.2,47.1z M551.8,31l7.8,4.4l7.8-4.4l-4.7,7.2
						l4.7,7.2l-7.8-4.4l-7.8,4.4l4.7-7.2L551.8,31z M532.2,33.6L532.2,33.6c9.8-0.8,17.7,8.9,17.7,21.7s-7.9,23-17.6,22.8h-0.1
						c-9.7-0.3-17.5-10-17.5-21.7C514.7,44.6,522.6,34.4,532.2,33.6z M490.7,27.9l10.8,7.3l10.8-7.3l-7.9,10l7.9,10l-10.8-7.3
						l-10.8,7.3l7.9-10L490.7,27.9z M508.4,76.2c-4.8,3-11.4-0.7-14.6-7.6s-2-14.8,2.9-18.1c4.8-3.2,11.4-0.4,14.6,6.8
						S513.2,73.2,508.4,76.2z M478.4,58c3.5-2.2,8.3-0.1,10.7,4.9c2.4,5,1.4,11-2.1,13s-8.3-0.5-10.7-5.4
						C473.9,65.7,474.8,60.2,478.4,58z M591.5,102.8c-36.4-2.9-73-7.2-109.4-10.1c-2.8-0.2-4.9-1.1-4.9-3.7s2.3-4.6,5.1-4.4
						c36.4,1.9,72.8,3.8,109.2,5.7c2.8,0.1,5.1,3.1,5.1,6.6C596.7,100.3,594.4,103,591.5,102.8z M598.1,87.1
						c-40-1.8-79.9-3.6-119.9-5.5c-3.1-0.1-5.6-1.4-5.6-2.8s2.5-2.4,5.6-2.3c40,1.2,79.9,2.4,119.9,3.6c3.1,0.1,5.6,1.7,5.6,3.7
						C603.8,85.8,601.2,87.2,598.1,87.1z M603.2,72.2c-3.3,6.6-9.9,9.4-14.8,6.6c-4.9-2.9-6.2-10.2-2.9-16.6s9.9-9.7,14.8-7
						C605.2,57.8,606.5,65.5,603.2,72.2z"/>
				</g>
			</g>
		</g>
	</g>
</g>
</svg>
