<svg id="Layer_1" data-name="Layer 1" xmlns="http://www.w3.org/2000/svg" viewBox="0 0 221.54 188.07"><defs><style>.cls-1{fill:#2b7afb;}.cls-2{fill:#020403;opacity:0.35;isolation:isolate;}.cls-3{fill:#ff005c;}.cls-4{fill:#e61994;}.cls-5{fill:#ffca54;}.cls-6{fill:#405acb;}</style></defs><title>Promsocial New Icons Final</title><path id="path-1" class="cls-1" d="M143,28.1a93.13,93.13,0,0,1,0,132.5c-36.9,36.5-96.9,36.5-133.8,0a94.69,94.69,0,0,1-8.4-9.7,4.22,4.22,0,0,1-.5-4.2,4.09,4.09,0,0,1,3.5-2.4,86.2,86.2,0,0,0,55.1-24.8A85.27,85.27,0,0,0,66.64,7.4a4.22,4.22,0,0,1-.5-4.2A4.09,4.09,0,0,1,69.64.8,95.92,95.92,0,0,1,143,28.1Z"/><path id="path-2" class="cls-2" d="M143,28.1a83.15,83.15,0,0,0-9.6-8.2,93.18,93.18,0,0,1-4.9,127.3c-25.7,25.5-64.8,39.8-97.3,29.7,12.7,7.4,29.7,10,35.3,10.7A95.1,95.1,0,0,0,143,160.7,93.43,93.43,0,0,0,143,28.1Z"/><path id="path-6" class="cls-3" d="M155.64,120.6h33.3c2.6,0,4.6,1.7,4.6,4,0,2.1-2.1,4-4.6,4h-.6c-2.6,0-4.6,1.7-4.6,4,0,2.1,2.1,4,4.6,4h28.6c2.6,0,4.6,1.7,4.6,4,0,2.1-2.1,4-4.6,4h-92c-2.6,0-4.6-1.7-4.6-4,0-2.1,2.1-4,4.6-4h7.9c2.6,0,4.6-1.7,4.6-4s-2.1-4-4.6-4H95.14c-2.6,0-4.6-1.7-4.6-4,0-2.1,2.1-4,4.6-4h60.5Z"/><path id="path-7" class="cls-4" d="M164.14,0h4.8a1.69,1.69,0,0,1,1.7,1.7,1.69,1.69,0,0,1-1.7,1.7h-.2a1.7,1.7,0,1,0,0,3.4H179a1.7,1.7,0,1,1,0,3.4h-25.8a1.7,1.7,0,1,1,0-3.4H156a1.7,1.7,0,1,0,0-3.4h-13.5a1.69,1.69,0,0,1-1.7-1.7,1.69,1.69,0,0,1,1.7-1.7h21.6Z"/><path class="cls-5" d="M44.94,18.3l-3-1.1a8.9,8.9,0,0,1-5.2-5.2l-1.1-3c0-.1-.1-.2-.3-.2s-.2.1-.3.2l-1.1,3a8.9,8.9,0,0,1-5.2,5.2l-3,1.1c-.1,0-.2.1-.2.3s.1.2.2.3l3,1.1a8.9,8.9,0,0,1,5.2,5.2l1.1,3c0,.1.1.2.3.2s.2-.1.3-.2l1.1-3a8.9,8.9,0,0,1,5.2-5.2l3-1.1c.1,0,.2-.1.2-.3S45,18.4,44.94,18.3Z"/><path class="cls-5" d="M200,45.4l-7.7-2.8a22.74,22.74,0,0,1-13.4-13.4l-2.8-7.7a.74.74,0,0,0-1.4,0l-2.8,7.7a22.74,22.74,0,0,1-13.4,13.4l-7.7,2.8a.74.74,0,0,0,0,1.4l7.7,2.8A22.74,22.74,0,0,1,171.94,63l2.8,7.7a.74.74,0,0,0,1.4,0l2.8-7.7a22.74,22.74,0,0,1,13.4-13.4l7.7-2.8a.74.74,0,0,0,0-1.4Z"/><path class="cls-5" d="M54.34,120.3l-5.1-1.9a14.86,14.86,0,0,1-9-9l-1.9-5.1a.57.57,0,0,0-1,0l-1.9,5.1a14.86,14.86,0,0,1-9,9l-5.1,1.9a.57.57,0,0,0,0,1l5.1,1.9a14.86,14.86,0,0,1,9,9l1.9,5.1a.57.57,0,0,0,1,0l1.9-5.1a14.86,14.86,0,0,1,9-9l5.1-1.9a.57.57,0,0,0,0-1Z"/><path id="path-6-2" data-name="path-6" class="cls-6" d="M80.84,55.8h33.3c2.6,0,4.6,1,4.6,2.3s-2.1,2.3-4.6,2.3h-.6c-2.6,0-4.6,1-4.6,2.3s2.1,2.3,4.6,2.3h28.6c2.6,0,4.6,1,4.6,2.3s-2.1,2.3-4.6,2.3h-92c-2.6,0-4.6-1-4.6-2.3s2.1-2.3,4.6-2.3H58c2.6,0,4.6-1,4.6-2.3s-2.1-2.3-4.6-2.3H20.34c-2.6,0-4.6-1-4.6-2.3s2.1-2.3,4.6-2.3h60.5Z"/></svg>