<svg id="Layer_1" data-name="Layer 1" xmlns="http://www.w3.org/2000/svg" viewBox="0 0 243.31 244"><defs><style>.cls-1{fill:#ffca54;}.cls-2{fill:#f7c169;}.cls-3{fill:#fff;}.cls-4{fill:#ff005c;}.cls-5{fill:#4e7fff;}.cls-6{fill:#cdd6e0;}.cls-7{fill:#40596b;}.cls-8{fill:#ffd15c;}.cls-9{fill:#334a5e;}.cls-10{fill:#d10257;}</style></defs><title>Promsocial New Icons Final</title><path class="cls-1" d="M89.7,15.3H10.2A10.24,10.24,0,0,0,0,25.5V233.8A10.24,10.24,0,0,0,10.2,244H91.3V15.3Z"/><path class="cls-2" d="M169.2,15.3H91.3V243.9h77.9a10.24,10.24,0,0,0,10.2-10.2V25.4A10.36,10.36,0,0,0,169.2,15.3Z"/><rect class="cls-3" x="13.5" y="28.8" width="151.9" height="201.2"/><path class="cls-4" d="M123.9,0H55.3C49.2,0,44.1,5.1,44.1,10.7V38.6h90.4V10.7C135.1,5.1,130,0,123.9,0Z"/><rect class="cls-5" x="66.5" y="62" width="88.4" height="11.7"/><rect class="cls-5" x="66.5" y="103.2" width="88.4" height="11.7"/><rect class="cls-5" x="66.5" y="144.3" width="88.4" height="11.7"/><rect class="cls-5" x="66.5" y="185.5" width="88.4" height="11.7"/><rect class="cls-6" x="23.9" y="177.3" width="27.9" height="27.9"/><rect class="cls-6" x="23.9" y="136.2" width="27.9" height="27.9"/><rect class="cls-6" x="23.9" y="95" width="27.9" height="27.9"/><rect class="cls-6" x="23.9" y="53.9" width="27.9" height="27.9"/><polygon class="cls-7" points="34 76.8 27.4 69.6 31 66.1 34 69.1 44.2 59.5 47.7 63 34 76.8"/><polygon class="cls-7" points="34.5 117.4 27.9 110.8 31.5 107.2 34.5 110.3 44.7 100.6 48.3 104.2 34.5 117.4"/><path class="cls-8" d="M168.6,114.3,220.4,63,197,39.6,145.2,90.9c-.5.5-.5,1-1,1a1.75,1.75,0,0,1-.5,1l-.5,1-4.6,17.3-3,12.2,12.2-3,17.8-4.6,1-.5a1.75,1.75,0,0,0,1-.5A1.75,1.75,0,0,1,168.6,114.3Z"/><path class="cls-4" d="M149.3,100.6l54.4-54.4-7.1-7.1L145.3,90.9c-.5.5-.5,1-1,1a1.75,1.75,0,0,1-.5,1l-.5,1Z"/><path class="cls-4" d="M168.6,114.3,220.4,63l-7.1-7.1-54.4,53.8,6.1,6.1,1-.5a1.75,1.75,0,0,0,1-.5C167.6,114.9,168.1,114.3,168.6,114.3Z"/><polygon class="cls-9" points="147.3 120.4 138.7 111.8 135.1 124 147.3 120.4"/><path class="cls-7" d="M240.3,28l-9.1-9.1c-4.1-4.1-10.7-4.1-14.2,0L203.8,32.1l23.4,23.4,13.2-13.2C244.3,38.7,244.3,32.1,240.3,28Z"/><polygon class="cls-10" points="149.3 100.6 203.7 46.3 213.4 55.9 159 109.8 149.3 100.6"/><polygon class="cls-8" points="203.7 32.6 227.1 55.9 220 63 196.6 39.7 203.7 32.6"/></svg>