<svg id="Layer_1" data-name="Layer 1" xmlns="http://www.w3.org/2000/svg" viewBox="0 0 215.2 200.5"><defs><style>.cls-1{fill:#e0056e;}.cls-2{fill:#ff005c;}</style></defs><title>Promsocial New Icons Final</title><path class="cls-1" d="M107.5,200.4a6.44,6.44,0,0,1-4.5-1.8c-6.5-5.9-12.8-11.7-18.8-17.1C35.3,137.2,0,105.2,0,64,0,27.5,24.1,0,56.1,0c27.2,0,43.4,20.3,51.5,35.2C115.7,20.4,131.8,0,159.1,0c32,0,56.1,27.5,56.1,64-.1,41.2-35.4,73.2-84.3,117.5-6,5.5-12.4,11.1-18.8,17.1A6.57,6.57,0,0,1,107.5,200.4Z"/><path class="cls-2" d="M112,198.7c6.5-5.9,12.8-11.7,18.8-17.1,48.9-44.3,84.3-76.3,84.3-117.5,0-36.5-24.1-64-56.1-64-27.2,0-43.4,20.3-51.5,35.2V200.5A7.12,7.12,0,0,0,112,198.7Z"/></svg>