<?xml version="1.0" encoding="UTF-8"?>
<svg width="58px" height="58px" viewBox="0 0 58 58" version="1.1" xmlns="http://www.w3.org/2000/svg" xmlns:xlink="http://www.w3.org/1999/xlink">
    <!-- Generator: Sketch 56.3 (81716) - https://sketch.com -->
    <title>1xGroup 6</title>
    <desc>Created with Sketch.</desc>
    <defs>
        <filter x="-6.3%" y="-12.3%" width="112.6%" height="122.1%" filterUnits="objectBoundingBox" id="filter-1">
            <feOffset dx="0" dy="2" in="SourceAlpha" result="shadowOffsetOuter1"></feOffset>
            <feGaussianBlur stdDeviation="2" in="shadowOffsetOuter1" result="shadowBlurOuter1"></feGaussianBlur>
            <feColorMatrix values="0 0 0 0 0   0 0 0 0 0   0 0 0 0 0  0 0 0 0.329463505 0" type="matrix" in="shadowBlurOuter1" result="shadowMatrixOuter1"></feColorMatrix>
            <feMerge>
                <feMergeNode in="shadowMatrixOuter1"></feMergeNode>
                <feMergeNode in="SourceGraphic"></feMergeNode>
            </feMerge>
        </filter>
        <linearGradient x1="50%" y1="0%" x2="50%" y2="100%" id="linearGradient-2">
            <stop stop-color="#484DFE" offset="0%"></stop>
            <stop stop-color="#601EEB" offset="100%"></stop>
        </linearGradient>
        <path d="M44,22 C44,23.9061935 42.3541694,25.5706532 41.8842742,27.3287903 C41.3980565,29.147871 41.9767984,31.4096129 41.0552823,33.0023065 C40.1205484,34.6177984 37.8635968,35.241871 36.5524677,36.5529113 C35.2414274,37.8639516 34.6174435,40.1208145 33.0020403,41.0554597 C31.4094355,41.9768871 29.1477823,41.3980565 27.3287903,41.8842742 C25.5707419,42.3541694 23.9062823,44 22,44 C20.0938065,44 18.4293468,42.3541694 16.6712097,41.8842742 C14.852129,41.3980565 12.5903871,41.9767984 10.9976935,41.0552823 C9.38220161,40.1205484 8.75812903,37.8635968 7.44708871,36.5524677 C6.13604839,35.2414274 3.87918548,34.6174435 2.94454032,33.0020403 C2.0231129,31.4094355 2.60194355,29.1477823 2.11572581,27.3287903 C1.64583065,25.5707419 0,23.9062823 0,22 C0,20.0938065 1.64583065,18.4293468 2.11572581,16.6712097 C2.60194355,14.852129 2.02320161,12.5903871 2.94471774,10.9976935 C3.87945161,9.38220161 6.13640323,8.75812903 7.44753226,7.44708871 C8.75857258,6.13604839 9.38255645,3.87918548 10.9979597,2.94454032 C12.5905645,2.0231129 14.8522177,2.60194355 16.6712097,2.11572581 C18.4292581,1.64583065 20.0937177,0 22,0 C23.9061935,0 25.5706532,1.64583065 27.3287903,2.11572581 C29.147871,2.60194355 31.4096129,2.02320161 33.0023065,2.94471774 C34.6177984,3.87945161 35.241871,6.13640323 36.5529113,7.44753226 C37.8639516,8.75857258 40.1208145,9.38255645 41.0554597,10.9979597 C41.9768871,12.5905645 41.3980565,14.8522177 41.8842742,16.6712097 C42.3541694,18.4292581 44,20.0937177 44,22" id="path-3"></path>
        <filter x="-19.3%" y="-14.8%" width="138.6%" height="138.6%" filterUnits="objectBoundingBox" id="filter-4">
            <feOffset dx="0" dy="2" in="SourceAlpha" result="shadowOffsetOuter1"></feOffset>
            <feGaussianBlur stdDeviation="2.5" in="shadowOffsetOuter1" result="shadowBlurOuter1"></feGaussianBlur>
            <feColorMatrix values="0 0 0 0 0   0 0 0 0 0   0 0 0 0 0  0 0 0 0.5 0" type="matrix" in="shadowBlurOuter1"></feColorMatrix>
        </filter>
        <polygon id="path-5" points="1.79176755e-05 0.085010628 36.9147298 0.085010628 36.9147298 36.910628 1.79176755e-05 36.910628"></polygon>
    </defs>
    <g id="Page-1" stroke="none" stroke-width="1" fill="none" fill-rule="evenodd">
        <g id="Store-Discount-Code-2" transform="translate(-129.000000, -494.000000)">
            <g id="Discount-Code" filter="url(#filter-1)" transform="translate(65.000000, 497.000000)">
                <g id="Group-6" transform="translate(71.000000, 0.000000)">
                    <g id="Discount-Icon">
                        <g id="Fill-1" fill-rule="nonzero">
                            <use fill="black" fill-opacity="1" filter="url(#filter-4)" xlink:href="#path-3"></use>
                            <use fill="url(#linearGradient-2)" xlink:href="#path-3"></use>
                        </g>
                        <g id="Group-5" transform="translate(0.000000, 7.000000)">
                            <mask id="mask-6" fill="white">
                                <use xlink:href="#path-5"></use>
                            </mask>
                            <g id="Clip-4"></g>
                            <path d="M7.52105182,0.085010628 C6.19693559,1.40574976 3.91780726,2.03448164 2.97381453,3.66194541 C2.04317046,5.26652995 2.62773462,7.54515797 2.13670073,9.37781981 C1.66215109,11.1490831 1.79176755e-05,12.8258802 1.79176755e-05,14.7463947 C1.79176755e-05,16.6668198 1.66215109,18.3437063 2.13670073,20.1149696 C2.62773462,21.947542 2.04317046,24.2260807 2.97372494,25.8305758 C3.91762809,27.4580396 6.19693559,28.0865928 7.52087264,29.4075106 C8.84489927,30.7284285 9.47515351,33.0021411 11.1066475,33.943943 C12.7151172,34.8723391 14.9992625,34.2892763 16.8363617,34.7791242 C18.6119138,35.2525275 20.2928605,36.9106459 22.2179356,36.9106459 C24.1431002,36.9106459 25.824047,35.2525275 27.5995094,34.7791242 C29.4365191,34.2892763 31.7205748,34.8724285 33.328955,33.9440324 C34.9603593,33.0024986 35.5904344,30.7286966 36.9147298,29.4079575 L36.9147298,29.4077787 L7.52105182,0.085010628 Z" id="Fill-3" fill="#435ECA" mask="url(#mask-6)"></path>
                        </g>
                        <path d="M38,21.5 C38,30.0604034 31.0604034,37 22.5,37 C13.9395966,37 7,30.0604034 7,21.5 C7,12.9395966 13.9395966,6 22.5,6 C31.0604034,6 38,12.9395966 38,21.5 Z" id="Fill-6" fill="#FFFFFF"></path>
                        <path d="M21.8162229,38 C26.1837471,38 30.1378028,36.2296614 33,33.3675541 L10.6324459,11 C7.77033859,13.8621972 6,17.8162529 6,22.1837771 C6,30.9188254 13.0811746,38 21.8162229,38" id="Fill-8" fill="#EEE5E5"></path>
                        <path d="M22.5,9 C29.9558191,9 36,15.0441809 36,22.5 C36,29.9558191 29.9558191,36 22.5,36 C15.0441809,36 9,29.9558191 9,22.5 C9,15.0441809 15.0441809,9 22.5,9" id="Fill-10" fill="#FC125F"></path>
                        <path d="M12.9462001,13 C10.5081008,15.4380993 9,18.8063743 9,22.5269 C9,29.9678626 15.0321374,36 22.4731,36 C26.1936257,36 29.5619007,34.4918992 32,32.0537999 L12.9462001,13 Z" id="Fill-12" fill="#DE146F"></path>
                    </g>
                    <g id="Group-4" transform="translate(12.933087, 11.000000)" fill="#FFFFFF">
                        <g id="noun_Money_1742802" transform="translate(4.066913, 0.000000)" fill-rule="nonzero">
                            <path d="M5.66,18.76 C3.10601165,18.8674668 0.944178094,16.8932304 0.82,14.34 C0.82,13.6772583 1.3572583,13.14 2.02,13.14 C2.6827417,13.14 3.22,13.6772583 3.22,14.34 C3.3564739,15.5579966 4.43890794,16.4452376 5.66,16.34 C6.88109206,16.4452376 7.9635261,15.5579966 8.1,14.34 C7.9635261,13.1220034 6.88109206,12.2347624 5.66,12.34 C4.9972583,12.34 4.46,11.8027417 4.46,11.14 C4.46,10.4772583 4.9972583,9.94 5.66,9.94 C8.21398835,9.83253318 10.3758219,11.8067696 10.5,14.36 C10.3652417,16.905289 8.20657692,18.8677116 5.66,18.76 Z" id="Path"></path>
                            <path d="M5.66,12.32 C3.10601165,12.4274668 0.944178094,10.4532304 0.82,7.9 C0.944178094,5.34676962 3.10601165,3.37253318 5.66,3.48 C8.21398835,3.37253318 10.3758219,5.34676962 10.5,7.9 C10.5,8.56274167 9.96274167,9.09999993 9.3,9.09999993 C8.63725833,9.09999993 8.10000004,8.56274167 8.1,7.9 C7.9635261,6.68200343 6.88109206,5.79476241 5.66,5.9 C4.43890794,5.79476241 3.3564739,6.68200343 3.22,7.9 C3.3564739,9.11799657 4.43890794,10.0052376 5.66,9.9 C6.09229136,9.9 6.49174506,10.1306247 6.70789074,10.505 C6.92403642,10.8793753 6.92403642,11.3406247 6.70789074,11.715 C6.49174506,12.0893753 6.09229136,12.32 5.66,12.32 Z" id="Path"></path>
                            <path d="M5.61,4.89 C5.05771525,4.89 4.61,4.44228475 4.61,3.89 L4.61,1.89 C4.61,1.33771525 5.05771525,0.89 5.61,0.89 C6.16228475,0.89 6.61,1.33771525 6.61,1.89 L6.61,3.89 C6.61,4.44228475 6.16228475,4.89 5.61,4.89 Z" id="Path"></path>
                            <path d="M5.61,20.89 C5.05771525,20.89 4.61,20.4422847 4.61,19.89 L4.61,17.89 C4.61,17.3377153 5.05771525,16.89 5.61,16.89 C6.16228475,16.89 6.61,17.3377153 6.61,17.89 L6.61,19.89 C6.61,20.4422847 6.16228475,20.89 5.61,20.89 Z" id="Path"></path>
                        </g>
                        <path d="M3.9285659,18.0256855 C3.69100779,18.0256855 3.4533723,17.9349956 3.27206981,17.7536157 C2.90931006,17.3911655 2.90931006,16.8029964 3.27206981,16.4405461 L14.4148606,5.29775533 C14.7776204,4.93499558 15.3651704,4.93499558 15.7279302,5.29775533 C16.0906899,5.66020555 16.0906899,6.24837467 15.7279302,6.61082489 L4.58513937,17.7536157 C4.4037595,17.9349956 4.16612401,18.0256855 3.9285659,18.0256855" id="Fill-14-Copy" transform="translate(9.500000, 11.525686) rotate(-45.000000) translate(-9.500000, -11.525686) "></path>
                    </g>
                </g>
            </g>
        </g>
    </g>
</svg>