<svg id="Layer_1" data-name="Layer 1" xmlns="http://www.w3.org/2000/svg" viewBox="0 0 238.41 159.93"><defs><style>.cls-1{fill:none;}.cls-2{fill:#405acb;}.cls-3{fill:#f4b037;}.cls-4{fill:#4e7fff;}.cls-5{fill:#ffca54;}</style></defs><title>Promsocial New Icons Final</title><path class="cls-1" d="M125.41,64.28a2,2,0,0,0-2,2l0,1.8,4,0,0-1.8A2,2,0,0,0,125.41,64.28Z"/><path class="cls-1" d="M151.11,64.5a2,2,0,0,0-2,2l0,1.8,4,0,0-1.8A2.07,2.07,0,0,0,151.11,64.5Z"/><path class="cls-1" d="M138.21,64.39a2,2,0,0,0-2,2l0,1.8,4,0,0-1.8A2,2,0,0,0,138.21,64.39Z"/><path class="cls-1" d="M87,63.94a2,2,0,0,0-2,2l0,1.8,4,0L89,66A2,2,0,0,0,87,63.94Z"/><path class="cls-1" d="M99.81,64.05a2,2,0,0,0-2,2l0,1.8,4,0,0-1.8A2,2,0,0,0,99.81,64.05Z"/><path class="cls-1" d="M112.61,64.17a2,2,0,0,0-2,2l0,1.8,4,0,0-1.8A2,2,0,0,0,112.61,64.17Z"/><path class="cls-2" d="M9.17,125.26,8.94,152a6.12,6.12,0,0,0,6,6.15l27.5.24a6.12,6.12,0,0,0,6.15-6l0-5.5C18.09,146.54,9.17,125.26,9.17,125.26Z"/><path class="cls-2" d="M187.88,148l0,5.5a6.12,6.12,0,0,0,6,6.15l27.5.24a6.12,6.12,0,0,0,6.15-6l.23-26.7C227.71,144.48,187.88,148,187.88,148Z"/><path class="cls-2" d="M30,41.74c-1.17-3.41-3.76-5.13-7.65-5.17l-17.5-.15c-3.1,0-4.71,1.66-4.74,4.46L0,53.88c0,3.8,7,6.86,13.94,6.92l8.9.08,11.06-6.7C32.25,48.86,30.59,43.35,30,41.74Z"/><path class="cls-2" d="M233.74,38.43l-17.5-.15c-4,0-6.51,1.64-7.74,5-.61,1.59-2.36,7.08-4.11,12.46l10.94,6.9,8.9.08c6.9.06,14-2.88,14.06-6.68l.11-13C238.53,40.07,236.84,38.46,233.74,38.43Z"/><path class="cls-3" d="M69.62,120.09l-.26,29.7c4,.44,8.89.78,12.19.81l73.3.64c3.3,0,8.2-.23,12.21-.59l.26-29.7Z"/><path class="cls-3" d="M85,65.92a2,2,0,1,1,4,0l0,1.8,8.8.08,0-1.8a2,2,0,0,1,4,0l0,1.8,8.8.08,0-1.8a2,2,0,0,1,4,0l0,1.8,8.8.08,0-1.8a2,2,0,0,1,4,0l0,1.8,8.8.08,0-1.8a2,2,0,1,1,4,0l0,1.8,8.8.08,0-1.8a2,2,0,0,1,4,0l0,1.8,14.9.13,0-3A7.25,7.25,0,0,0,162.55,60l-37.74-6.83c-.5-.1-1-.11-1.6-.21v-.9A4.1,4.1,0,1,0,115,52v.9a7.77,7.77,0,0,0-1.6.19L75.55,59.44a7.12,7.12,0,0,0-5.45,5.25l0,3,14.9.13,0-1.9Z"/><path class="cls-4" d="M204.39,55.67a230.46,230.46,0,0,0-12.61-44,13.25,13.25,0,0,0-9.43-7.48c-.9-.11-22.77-3.8-62.67-4.15h0C79.78-.32,57.95,3,57,3.08a13.25,13.25,0,0,0-9.56,7.32A227.78,227.78,0,0,0,34.1,54.18C34,60.08,23,60.88,23,60.88c-5.71,1.55-8.93,3.32-8.95,5.22l0,5.1C8.11,75.45,7.67,80,7.67,80s-.31,35.1-.23,37.9c0,2.4-.15,5.3,1.94,7.32L49,146.81l17.48,2.65c1,.11,2,.22,3.2.43l.26-29.7-44.6-.39a5.7,5.7,0,0,1-5.65-5.75L20,73a5.7,5.7,0,0,1,5.75-5.65l44.3.39,0-3c-10.48-2.19-18.89-1-28.19-1,4.41-23.46,14.53-48.77,14.63-49a3.56,3.56,0,0,1,1.81-1.38c.2,0,22.13-3.31,61-3h0c39,.34,60.77,3.93,61.07,4a3.56,3.56,0,0,1,1.79,1.42c.1.2,11.49,24.3,15.48,47.84-7.69-1.07-20.71.92-30.6.23l.66,4.71,44.3.39a5.7,5.7,0,0,1,5.65,5.75l-.36,41.1a5.7,5.7,0,0,1-5.75,5.65l-44.3-.39-.26,29.7a31,31,0,0,0,3.2-.37L187.78,148l40-20.85c2.12-2.08,1.94-5,2.06-7.28,0-2.7.43-37.9.43-37.9s-.36-4.6-6.22-9l0-5.1c0-1.9-3.17-3.63-8.85-5.38C215.43,62.67,204.33,62.37,204.39,55.67Z"/><path class="cls-2" d="M33.9,54.27,22.84,61C22.74,61,33.85,60.17,33.9,54.27Z"/><path class="cls-2" d="M215.43,62.67l-10.94-6.9C204.33,62.37,215.43,62.67,215.43,62.67Z"/><path class="cls-2" d="M48.79,146.81,9.17,125.26S18.09,146.54,48.79,146.81Z"/><path class="cls-2" d="M227.86,127.18l-40,20.85S227.71,144.48,227.86,127.18Z"/><path class="cls-5" d="M50.47,103.42a4.7,4.7,0,1,0,4.66,4.74A4.83,4.83,0,0,0,50.47,103.42Z"/><path class="cls-5" d="M61.69,78.52A2.11,2.11,0,0,0,59.6,76.4l-26.5-.23A2.11,2.11,0,0,0,31,78.25l-.07,8.2A2.11,2.11,0,0,0,33,88.57l26.5.23a2.11,2.11,0,0,0,2.12-2.08h0Z"/><path class="cls-5" d="M178.09,89.74l26.5.23a2.11,2.11,0,0,0,2.12-2.08h0l.07-8.1a2.11,2.11,0,0,0-2.08-2.12l-26.5-.23a2.11,2.11,0,0,0-2.12,2.08l-.07,8.2A2.09,2.09,0,0,0,178.09,89.74Z"/><circle class="cls-5" cx="179.02" cy="109.15" r="4.7" transform="translate(68.3 287.21) rotate(-89.5)"/><path class="cls-5" d="M168,68.45l-14.9-.13-.39,44.5a2,2,0,0,1-4,0l.39-44.5-8.8-.08-.39,44.5a2,2,0,0,1-4,0l.39-44.5-8.8-.08-.39,44.5a2,2,0,1,1-4,0l.39-44.5-8.8-.08-.39,44.5a2,2,0,1,1-4,0l.39-44.5-8.8-.08-.39,44.5a2,2,0,0,1-4,0l.39-44.5-8.8-.08-.39,44.5a2,2,0,1,1-4,0l.39-44.5-14.9-.13-.46,52.5,97.8.86.46-52.5Z"/><path class="cls-2" d="M211.82,121.34a5.7,5.7,0,0,0,5.75-5.65l.36-41.1a5.7,5.7,0,0,0-5.65-5.75L168,68.45l-.46,52.5,44.3.39ZM176.08,79.52a2.11,2.11,0,0,1,2.12-2.08l26.5.23a2.11,2.11,0,0,1,2.08,2.12l-.07,8.2h0a2.11,2.11,0,0,1-2.12,2.08l-26.5-.23A2.11,2.11,0,0,1,176,87.72Zm3,25a4.7,4.7,0,1,1-4.74,4.66A4.69,4.69,0,0,1,179.06,104.55Z"/><path class="cls-2" d="M25.78,67.2A5.7,5.7,0,0,0,20,72.85L19.67,114a5.7,5.7,0,0,0,5.65,5.75l44.3.39.46-52.5-44.3-.39Zm24.6,45.52a4.7,4.7,0,1,1,4.74-4.66A4.83,4.83,0,0,1,50.39,112.72Zm9.21-24-26.5-.23A2.11,2.11,0,0,1,31,86.35l.07-8.1a2.11,2.11,0,0,1,2.12-2.08l26.5.23a2.11,2.11,0,0,1,2.08,2.12l-.07,8.2h0A2.16,2.16,0,0,1,59.6,88.7Z"/><rect class="cls-2" x="108.78" y="92.67" width="19.1" height="97.8" transform="translate(-24.27 258.66) rotate(-89.5)"/></svg>