<?xml version="1.0" encoding="UTF-8"?>
<svg width="39px" height="50px" viewBox="0 0 39 50" version="1.1" xmlns="http://www.w3.org/2000/svg" xmlns:xlink="http://www.w3.org/1999/xlink">
    <!-- Generator: Sketch 56.3 (81716) - https://sketch.com -->
    <title>1xshopper</title>
    <desc>Created with Sketch.</desc>
    <g id="Page-1" stroke="none" stroke-width="1" fill="none" fill-rule="evenodd">
        <g id="Prepare-For-Prom" transform="translate(-66.000000, -193.000000)" fill-rule="nonzero">
            <g id="shopper" transform="translate(66.000000, 193.000000)">
                <polygon id="Path" fill="#1D51A4" points="36.2171544 16 29.5942336 16 26 5.50749457 38 1"></polygon>
                <polygon id="Path" fill="#679CF3" points="32 16 16 16 16 4.5261286 25.4824368 0"></polygon>
                <path d="M27.1035067,4 C25.8094246,9.28737912 21.5242031,13.4422778 16,14.7658251 L16,16 L32,16 L27.1035067,4 Z" id="Path" fill="#2B7AFB"></path>
                <path d="M12.9071331,17 L2,17 L2,4.70920638 C2.00152971,3.48922154 2.89107105,2.46055884 4.07666013,2.30776338 L14.223283,1.01249886 C14.7332526,0.947361113 15.2424009,1.13944116 15.588339,1.52747664 C15.9342771,1.91551212 16.0738009,2.45104133 15.9624105,2.96326161 L12.9071331,17 Z" id="Path" fill="#679CF3"></path>
                <path d="M3.52512795,11.987694 C3.01505482,11.9843303 2.50569043,11.9495586 2,11.8835812 L2,15 L12.5250986,15 L15,4 C13.2662357,8.78797696 8.67410025,11.9845767 3.52512795,11.987694 Z" id="Path" fill="#1D51A4"></path>
                <polygon id="Path" fill="#FF005C" points="22 16 12.2171925 16 10 3 19.4663957 3"></polygon>
                <path d="M19.4638418,3 L18.8656137,3 C18.8636284,8.06222919 16.1840818,12.6620591 12,14.7858203 L12.2073315,16 L22,16 L19.4638418,3 Z" id="Path" fill="#DF046E"></path>
                <polygon id="Path" fill="#FFC952" points="0 15 29 15 29 50 2.71128149e-15 50"></polygon>
                <path d="M3.81578947,47.6838095 C2.53915959,47.681986 1.26418452,47.5907934 0,47.4108851 L0,50 L29,50 L29,31 C24.7614211,40.818621 15.0833388,47.6838095 3.81578947,47.6838095 Z" id="Path" fill="#F3BB3F"></path>
                <polygon id="Path" fill="#E8B544" points="29 15 39 15 39 50 29 50"></polygon>
                <g id="Group" transform="translate(8.000000, 20.000000)" fill="#1C50A4">
                    <path d="M10.0431172,8 L3.8638069,8 C1.73188175,7.99768758 0.00423853835,6.40005833 0.00173793103,4.42857143 L0.00173793103,1.57142857 C0.00173793103,1.17693946 0.347559366,0.857142857 0.774151724,0.857142857 C1.20074408,0.857142857 1.54656552,1.17693946 1.54656552,1.57142857 L1.54656552,4.42857143 C1.54800217,5.61148801 2.58462538,6.57010003 3.8638069,6.57142857 L10.0431172,6.57142857 C11.3222988,6.57010003 12.358922,5.61148801 12.3603586,4.42857143 L12.3603586,1.57142857 C12.3603586,1.17693946 12.7061801,0.857142857 13.1327724,0.857142857 C13.5593648,0.857142857 13.9051862,1.17693946 13.9051862,1.57142857 L13.9051862,4.42857143 C13.9026856,6.40005833 12.1750424,7.99768758 10.0431172,8 L10.0431172,8 Z" id="Path"></path>
                </g>
                <polygon id="Path" fill="#EBCB85" points="39 48.3565173 39 50 38.4285714 50 34.0285714 44.3771586 30.0714286 50 29 50 29 48.9880407 33.2857143 42.9010677 33.2857143 15 34.7142857 15 34.7142857 42.8783366"></polygon>
                <circle id="Oval" fill="#FFFFFF" cx="4.5" cy="5.5" r="1.5"></circle>
                <circle id="Oval" fill="#FFFFFF" cx="14.5" cy="5.5" r="1.5"></circle>
            </g>
        </g>
    </g>
</svg>