<svg id="Layer_1" data-name="Layer 1" xmlns="http://www.w3.org/2000/svg" viewBox="0 0 271.83 210.46"><defs><style>.cls-1{fill:#40596b;}.cls-2{fill:#111;}.cls-3{fill:#e30e4b;}.cls-4{fill:#f93b74;}.cls-5{fill:#f4b037;}.cls-6{fill:#ffca54;}</style></defs><title>Promsocial New Icons Final</title><path class="cls-1" d="M267,203.3a6.8,6.8,0,0,1-6.6,6.6H11.4a6.8,6.8,0,0,1-6.6-6.6h0a6.8,6.8,0,0,1,6.6-6.6h249a6.47,6.47,0,0,1,6.6,6.6Z"/><path class="cls-2" d="M267,203.3a6.8,6.8,0,0,0-6.6-6.6H210.9l21,10.5,3.5,3.1h25C264.4,210.3,267,207.3,267,203.3Z"/><path class="cls-2" d="M61,196.7H11.5a6.6,6.6,0,0,0,0,13.2h25l3.5-3.1Z"/><path class="cls-3" d="M260.9,170c-.4-.4-.9-.4-1.3-.9l-97.7-59.6A37.85,37.85,0,0,0,136,99a36.45,36.45,0,0,0-25.9,10.5L11.9,169.1c-.4.4-.9.4-1.3.9a36.75,36.75,0,0,0-9.2,35.5c.4,2.2,2.2,3.5,3.9,4.4.4,0,1.3.4,1.8.4A6.74,6.74,0,0,0,11,209l28.9-23.7,76.7-38.6c.4-.4,1.3-.9,1.8-1.3a24.73,24.73,0,0,1,17.5-7.5,23.51,23.51,0,0,1,17.5,7.5,5.57,5.57,0,0,0,1.8,1.3l76.7,38.6L260.8,209c1.8,1.3,3.9,1.8,5.7.9a5.55,5.55,0,0,0,3.9-4.4C274.1,192.8,270.5,179.7,260.9,170Z"/><path class="cls-4" d="M260,179.7l-98.2-59.6a37.85,37.85,0,0,0-25.9-10.5A36.45,36.45,0,0,0,110,120.1L11.8,179.7c-.4.4-.9.4-1.3.9A38.5,38.5,0,0,0,0,201.2a17.16,17.16,0,0,0,.9,4.4c.4,2.2,2.2,3.5,3.9,4.4.4,0,1.3.4,1.8.4a6.74,6.74,0,0,0,3.9-1.3l28.9-23.7,76.7-38.6c.4-.4,1.3-.9,1.8-1.3a24.73,24.73,0,0,1,17.5-7.5,23.51,23.51,0,0,1,17.5,7.5,5.57,5.57,0,0,0,1.8,1.3l76.7,38.6,28.9,23.7c1.8,1.3,3.9,1.8,5.7.9a5.55,5.55,0,0,0,3.9-4.4c.4-1.3.4-2.6.9-4.4a37.15,37.15,0,0,0-10.5-20.6C260.9,180.5,260.5,180.1,260,179.7Z"/><path class="cls-5" d="M142.6,103.4A6.8,6.8,0,0,1,136,110h0a6.8,6.8,0,0,1-6.6-6.6V64.8a6.8,6.8,0,0,1,6.6-6.6h0a6.8,6.8,0,0,1,6.6,6.6Z"/><path class="cls-6" d="M136,0a35.21,35.21,0,0,0-35.1,35.1,6.6,6.6,0,1,0,13.2,0,22.4,22.4,0,1,1,22.4,22.4,6.8,6.8,0,0,0-6.6,6.6,5.94,5.94,0,0,0,6.1,6.1A35.1,35.1,0,0,0,136,0Z"/></svg>