<svg id="Layer_1" data-name="Layer 1" xmlns="http://www.w3.org/2000/svg" viewBox="0 0 197.8 161.4"><defs><style>.cls-1{fill:#ffca54;}.cls-2{fill:none;}.cls-3{fill:#40596b;}.cls-4{fill:#4e7fff;}.cls-5{fill:#405acb;}.cls-6{fill:#fafafa;}.cls-7{fill:#ff005c;}</style></defs><title>Promsocial New Icons Final</title><path class="cls-1" d="M30.1,23.2H11.3c-1.4,0-2.5.8-2.5,1.7v9.2c0,.9,1.1,1.7,2.5,1.7H30.1c1.4,0,2.5-.8,2.5-1.7V24.9C32.6,24,31.5,23.2,30.1,23.2Z"/><path class="cls-2" d="M99,148.2a59.15,59.15,0,0,0,50.3-28H123.1a39.43,39.43,0,0,1-48.4,0H48.5A59.75,59.75,0,0,0,99,148.2Z"/><path class="cls-2" d="M59.5,88.9a39.5,39.5,0,1,1,63.6,31.3h26.2a58.63,58.63,0,0,0,8.9-31.3A59.3,59.3,0,1,0,48.5,120.2H74.7A39.93,39.93,0,0,1,59.5,88.9Z"/><path class="cls-2" d="M171.5,46.1a13.2,13.2,0,1,0,13.2,13.2A13.19,13.19,0,0,0,171.5,46.1Z"/><path class="cls-3" d="M99,128.4a39.35,39.35,0,0,0,24.2-8.3H74.9A38.85,38.85,0,0,0,99,128.4Z"/><path class="cls-3" d="M138.5,88.9a39.5,39.5,0,1,0-63.6,31.3h48.3A39.72,39.72,0,0,0,138.5,88.9Z"/><g id="_Group_" data-name="&lt;Group&gt;"><path class="cls-4" d="M197.8,120.2v25.3a15.88,15.88,0,0,1-15.9,15.9H16.1A15.88,15.88,0,0,1,.2,145.5V120.2H48.7a59.18,59.18,0,0,0,100.6,0h48.5Z"/><path class="cls-5" d="M197.8,48.7v71.5H149.3a58.63,58.63,0,0,0,8.9-31.3A59.3,59.3,0,1,0,48.5,120.2H0V48.7A15.83,15.83,0,0,1,15.8,32.9H43.9L57.1,0h83.5l13.2,32.9h28.1A15.86,15.86,0,0,1,197.8,48.7ZM184.6,59.3a13.2,13.2,0,1,0-13.2,13.2A13.19,13.19,0,0,0,184.6,59.3Z"/></g><path class="cls-6" d="M102,114.4a3.5,3.5,0,1,1,0-7,17.54,17.54,0,0,0,12.9-5.5,3.54,3.54,0,1,1,5.1,4.9A25.21,25.21,0,0,1,102,114.4Z"/><path class="cls-6" d="M122.7,98.5a2.77,2.77,0,0,1-.9-.1,3.49,3.49,0,0,1-2.5-4.3,18.35,18.35,0,0,0,.6-4.7,18.05,18.05,0,0,0-18-18,3.5,3.5,0,0,1,0-7,25,25,0,0,1,25,25,23.72,23.72,0,0,1-.9,6.5A3.4,3.4,0,0,1,122.7,98.5Z"/><path class="cls-7" d="M171.5,46.1a13.2,13.2,0,1,1-13.2,13.2A13.19,13.19,0,0,1,171.5,46.1Z"/></svg>