<svg id="Layer_1" data-name="Layer 1" xmlns="http://www.w3.org/2000/svg" xmlns:xlink="http://www.w3.org/1999/xlink" viewBox="0 0 161 219.8"><defs><style>.cls-1{fill:#e61994;}.cls-2,.cls-6{fill:#e7eced;}.cls-3{fill:url(#linear-gradient);}.cls-4{fill:#f4b037;}.cls-5{fill:url(#linear-gradient-2);}.cls-11,.cls-6{opacity:0.4;isolation:isolate;}.cls-7{fill:#4e7fff;}.cls-8{fill:#405acb;}.cls-9{fill:#424a60;stroke:#e7eced;stroke-miterlimit:10;stroke-width:3px;}.cls-10{fill:url(#linear-gradient-3);}.cls-11{fill:#b4bfc1;}</style><linearGradient id="linear-gradient" y1="-213.65" x2="148.5" y2="-213.65" gradientTransform="matrix(1, 0, 0, -1, 0, -197.2)" gradientUnits="userSpaceOnUse"><stop offset="0" stop-color="#ffca54"/><stop offset="1" stop-color="#ffc145"/></linearGradient><linearGradient id="linear-gradient-2" x1="6.8" y1="-225.15" x2="155.3" y2="-225.15" xlink:href="#linear-gradient"/><linearGradient id="linear-gradient-3" x1="55.92" y1="292.2" x2="70.01" y2="292.2" gradientTransform="matrix(1, 0, 0, -1, 0, 368.8)" xlink:href="#linear-gradient"/></defs><title>Promsocial New Icons Final</title><polygon class="cls-1" points="49.5 219.8 36.2 200.5 22.8 219.8 22.8 113 49.5 113 49.5 219.8"/><rect class="cls-2" x="42.8" y="122.7" width="77.2" height="26.1"/><rect class="cls-3" y="7.9" width="148.5" height="17.1"/><rect class="cls-4" x="6.8" y="13.9" width="143.5" height="17.1"/><rect class="cls-5" x="6.8" y="19.4" width="148.5" height="17.1"/><polygon class="cls-6" points="89.2 112.7 72.2 95.8 46 118.9 95.4 118.9 89.2 112.7"/><path class="cls-7" d="M57.8,128.7,1.9,184.6a15.94,15.94,0,0,0,14.2,8.5H144.9A16.09,16.09,0,0,0,161,177V40.1a15.81,15.81,0,0,0-4-10.6L136.9,49.6"/><path class="cls-8" d="M136.9,49.6,157,29.5A15.89,15.89,0,0,0,144.9,24H16.1a8,8,0,1,1,0-16H144.9a4,4,0,0,0,0-8H16.1A16.09,16.09,0,0,0,0,16.1v161a16.46,16.46,0,0,0,1.9,7.6l55.9-55.9"/><rect class="cls-9" x="44.5" y="57.2" width="74" height="77.1"/><circle class="cls-10" cx="63" cy="76.6" r="7"/><polygon class="cls-11" points="116.9 105.2 115.4 103.5 96.9 86.5 80.7 104.2 89.2 112.7 95.4 118.9 116.9 118.9 116.9 105.2"/></svg>