<svg id="Layer_1" data-name="Layer 1" xmlns="http://www.w3.org/2000/svg" viewBox="0 0 217.8 217.7"><defs><style>.cls-1{fill:#40596b;opacity:0.5;isolation:isolate;}.cls-2{fill:#ffca54;}.cls-3{fill:#e0056e;}.cls-4{fill:#ff005c;}</style></defs><title>Promsocial New Icons Final</title><polygon class="cls-1" points="0 81.1 108.9 175.7 217.8 81.1 0 81.1"/><polygon class="cls-2" points="33.6 0 33.6 116.8 66.6 142.6 184.3 0 33.6 0"/><polygon class="cls-2" points="44.4 125.3 108.9 175.7 184.3 116.8 184.3 0 44.4 125.3"/><polygon class="cls-3" points="198.6 179.4 130.3 149.4 108.9 166.1 87.5 149.4 19.2 179.4 0 217.7 217.8 217.7 198.6 179.4"/><polygon class="cls-4" points="0 81.1 0 217.7 87.5 149.4 0 81.1"/><polygon class="cls-4" points="217.8 81.1 130.3 149.4 217.8 217.7 217.8 81.1"/><path class="cls-4" d="M152.6,46.4c-1.3-14.1-11.2-24.3-23.7-24.3a23.6,23.6,0,0,0-20.2,11.7C104.4,26.5,97.2,22.1,89,22.1c-12.5,0-22.4,10.2-23.7,24.3a24.65,24.65,0,0,0,.8,9.2A39.25,39.25,0,0,0,78.2,75.8l30.5,27.7,31-27.7a39.25,39.25,0,0,0,12.1-20.2A24.58,24.58,0,0,0,152.6,46.4ZM92.1,35.8A13.51,13.51,0,0,0,78.6,49.3a1.7,1.7,0,0,1-3.4,0A16.84,16.84,0,0,1,92,32.5a1.75,1.75,0,0,1,1.7,1.7A1.64,1.64,0,0,1,92.1,35.8Z"/></svg>