<?xml version="1.0" encoding="UTF-8"?>
<svg width="9px" height="8px" viewBox="0 0 9 8" version="1.1" xmlns="http://www.w3.org/2000/svg" xmlns:xlink="http://www.w3.org/1999/xlink">
    <!-- Generator: Sketch 56.3 (81716) - https://sketch.com -->
    <title>1xPath</title>
    <desc>Created with Sketch.</desc>
    <g id="Page-1" stroke="none" stroke-width="1" fill="none" fill-rule="evenodd">
        <g id="Market-Directory-Search-Result" transform="translate(-84.000000, -411.000000)" fill="#E6E6E6" fill-rule="nonzero">
            <g id="Search-Results" transform="translate(10.000000, 163.000000)">
                <g id="Group-9-Copy-2" transform="translate(18.000000, 223.000000)">
                    <g id="Group-8" transform="translate(56.000000, 0.000000)">
                        <g id="Group-5" transform="translate(0.000000, 25.000000)">
                            <path d="M4.12491048,0.0487789177 C4.08843896,0.0758359737 4.056132,0.108355252 4.02798961,0.146336753 L3.08301115,2.82917723 L0.248075775,2.82917723 C0.195072176,2.83032049 0.146611742,2.84658012 0.102694474,2.87795615 C0.0618690825,2.9050132 0.0295621266,2.93753248 0.00577360637,2.97551398 C-0.00192453546,3.0363606 -0.00192453546,3.09326934 0.00577360637,3.14624019 C0.02912043,3.19533668 0.0614273858,3.23598578 0.102694474,3.26818749 L2.283414,4.97544961 L1.50804705,7.68267954 C1.50104301,7.73145846 1.50104301,7.78023738 1.50804705,7.8290163 C1.53234037,7.87855739 1.56464733,7.91920648 1.60496792,7.95096359 C1.64440512,7.98145042 1.68478882,7.99771006 1.72611901,7.99974251 C1.78644215,8.00215605 1.83490259,7.98589641 1.87150031,7.95096359 L4.24606157,6.41442768 L6.62062282,7.95096359 C6.67350022,7.98602344 6.72196066,8.00228308 6.76600412,7.99974251 C6.82323539,7.99802763 6.87169583,7.98176799 6.91138543,7.95096359 C6.95208462,7.91914297 6.97631484,7.87849387 6.98407608,7.8290163 C7.0073598,7.78042792 7.0073598,7.731649 6.98407608,7.68267954 L6.20870914,4.97544961 L8.41365887,3.26818749 C8.45486286,3.2364939 8.47909308,3.1958448 8.48634953,3.14624019 C8.51039044,3.09720722 8.51039044,3.0484283 8.48634953,2.99990344 C8.47884068,2.94979072 8.45461047,2.90914163 8.41365887,2.87795615 C8.369994,2.8464531 8.32153357,2.83019346 8.26827757,2.82917723 L5.43334219,2.82917723 L4.48836374,0.146336753 C4.48066559,0.108736337 4.45643538,0.076217059 4.41567308,0.0487789177 C4.37188202,0.0175934378 4.32342158,0.00133379853 4.27029178,0 C4.22145275,0.00127028432 4.17299232,0.0175299236 4.12491048,0.0487789177 L4.12491048,0.0487789177 Z" id="Path"></path>
                        </g>
                    </g>
                </g>
            </g>
        </g>
    </g>
</svg>